<?xml version="1.0" encoding="UTF-8" standalone="no"?>
<!DOCTYPE svg PUBLIC "-//W3C//DTD SVG 1.1//EN"
 "http://www.w3.org/Graphics/SVG/1.1/DTD/svg11.dtd">
<!-- Generated by graphviz version 14.1.3 (20260303.0454)
 -->
<!-- Title: PageIndexAWSInfrastructure Pages: 1 -->
<svg width="2366pt" height="931pt"
 viewBox="0.00 0.00 2366.00 931.00" xmlns="http://www.w3.org/2000/svg" xmlns:xlink="http://www.w3.org/1999/xlink">
<g id="graph0" class="graph" transform="scale(1 1) rotate(0) translate(30.24 901.24)">
<title>PageIndexAWSInfrastructure</title>
<polygon fill="#ffffff" stroke="none" points="-30.24,30.24 -30.24,-901.24 2336.17,-901.24 2336.17,30.24 -30.24,30.24"/>
<text xml:space="preserve" text-anchor="middle" x="1152.96" y="-847.2" font-family="Helvetica Neue" font-size="22.00">PageIndex AgentCore — Full AWS Infrastructure and Data Flow</text>
<g id="clust1" class="cluster">
<title>cluster_aws</title>
<path fill="#ffffff" stroke="#ff9900" stroke-width="2.6" d="M20,-8C20,-8 1868,-8 1868,-8 1874,-8 1880,-14 1880,-20 1880,-20 1880,-816.6 1880,-816.6 1880,-822.6 1874,-828.6 1868,-828.6 1868,-828.6 20,-828.6 20,-828.6 14,-828.6 8,-822.6 8,-816.6 8,-816.6 8,-20 8,-20 8,-14 14,-8 20,-8"/>
<text xml:space="preserve" text-anchor="middle" x="944" y="-804.8" font-family="Helvetica Neue" font-size="22.00">AWS Account &#160;• &#160;Region: var.aws_region &#160;• &#160;Environment: NonProd</text>
</g>
<g id="clust2" class="cluster">
<title>cluster_deployment</title>
<path fill="#f8fbfe" stroke="#85b6dd" stroke-width="1.7" stroke-dasharray="5,2" d="M91,-573C91,-573 814,-573 814,-573 820,-573 826,-579 826,-585 826,-585 826,-754.2 826,-754.2 826,-760.2 820,-766.2 814,-766.2 814,-766.2 91,-766.2 91,-766.2 85,-766.2 79,-760.2 79,-754.2 79,-754.2 79,-585 79,-585 79,-579 85,-573 91,-573"/>
<text xml:space="preserve" text-anchor="middle" x="452.5" y="-742.4" font-family="Helvetica Neue" font-size="22.00">1 &#160;DEPLOYMENT AND CONTROL PLANE</text>
</g>
<g id="clust4" class="cluster">
<title>cluster_runtime</title>
<path fill="#fbfdf9" stroke="#a5c88c" stroke-width="1.7" stroke-dasharray="5,2" d="M48,-277.2C48,-277.2 1840,-277.2 1840,-277.2 1846,-277.2 1852,-283.2 1852,-289.2 1852,-289.2 1852,-489 1852,-489 1852,-495 1846,-501 1840,-501 1840,-501 48,-501 48,-501 42,-501 36,-495 36,-489 36,-489 36,-289.2 36,-289.2 36,-283.2 42,-277.2 48,-277.2"/>
<text xml:space="preserve" text-anchor="middle" x="944" y="-477.2" font-family="Helvetica Neue" font-size="22.00">2 &#160;RUNTIME AND DATA PLANE</text>
</g>
<g id="clust6" class="cluster">
<title>cluster_security</title>
<path fill="#fffbfc" stroke="#e78b98" stroke-width="1.7" stroke-dasharray="5,2" d="M80,-36C80,-36 1261,-36 1261,-36 1267,-36 1273,-42 1273,-48 1273,-48 1273,-217.2 1273,-217.2 1273,-223.2 1267,-229.2 1261,-229.2 1261,-229.2 80,-229.2 80,-229.2 74,-229.2 68,-223.2 68,-217.2 68,-217.2 68,-48 68,-48 68,-42 74,-36 80,-36"/>
<text xml:space="preserve" text-anchor="middle" x="670.5" y="-46.6" font-family="Helvetica Neue" font-size="22.00">3 &#160;IDENTITY AND AUTHORIZATION</text>
</g>
<!-- lifecycle -->
<g id="node1" class="node">
<title>lifecycle</title>
<path fill="#f4f6f8" stroke="#7b8794" stroke-width="1.8" d="M238.62,-661.6C238.62,-661.6 119.38,-661.6 119.38,-661.6 113.38,-661.6 107.38,-655.6 107.38,-649.6 107.38,-649.6 107.38,-620.8 107.38,-620.8 107.38,-614.8 113.38,-608.8 119.38,-608.8 119.38,-608.8 238.62,-608.8 238.62,-608.8 244.62,-608.8 250.62,-614.8 250.62,-620.8 250.62,-620.8 250.62,-649.6 250.62,-649.6 250.62,-655.6 244.62,-661.6 238.62,-661.6"/>
<text xml:space="preserve" text-anchor="middle" x="179" y="-639.1" font-family="Helvetica Neue" font-size="13.00">ECR Lifecycle Policy</text>
<text xml:space="preserve" text-anchor="middle" x="179" y="-623.5" font-family="Helvetica Neue" font-size="13.00">Retain latest 5 images</text>
</g>
<!-- ecr -->
<g id="node2" class="node">
<title>ecr</title>
<path fill="#e8f1fb" stroke="#1f73b7" stroke-width="2.3" d="M518.86,-669.4C518.86,-669.4 363.14,-669.4 363.14,-669.4 357.14,-669.4 351.14,-663.4 351.14,-657.4 351.14,-657.4 351.14,-613 351.14,-613 351.14,-607 357.14,-601 363.14,-601 363.14,-601 518.86,-601 518.86,-601 524.86,-601 530.86,-607 530.86,-613 530.86,-613 530.86,-657.4 530.86,-657.4 530.86,-663.4 524.86,-669.4 518.86,-669.4"/>
<text xml:space="preserve" text-anchor="middle" x="441" y="-646.9" font-family="Helvetica Neue" font-size="13.00">Amazon ECR Repository</text>
<text xml:space="preserve" text-anchor="middle" x="441" y="-631.3" font-family="Helvetica Neue" font-size="13.00">ARM64 PageIndex image</text>
<text xml:space="preserve" text-anchor="middle" x="441" y="-615.7" font-family="Helvetica Neue" font-size="13.00">Mutable tags • scan on push</text>
</g>
<!-- lifecycle&#45;&gt;ecr -->
<g id="edge1" class="edge">
<title>lifecycle&#45;&gt;ecr</title>
<path fill="none" stroke="#7b8794" stroke-width="1.9" d="M251.29,-635C251.29,-635 339.55,-635 339.55,-635"/>
<polygon fill="#7b8794" stroke="#7b8794" stroke-width="1.9" points="339.55,-637.73 347.35,-635 339.55,-632.27 339.55,-637.73"/>
</g>
<!-- s3 -->
<g id="node4" class="node">
<title>s3</title>
<path fill="#eaf4e5" stroke="#3f8624" stroke-width="2.3" d="M281.77,-388.9C281.77,-388.9 76.23,-388.9 76.23,-388.9 70.23,-388.9 64.23,-382.9 64.23,-376.9 64.23,-376.9 64.23,-332.5 64.23,-332.5 64.23,-326.5 70.23,-320.5 76.23,-320.5 76.23,-320.5 281.77,-320.5 281.77,-320.5 287.77,-320.5 293.77,-326.5 293.77,-332.5 293.77,-332.5 293.77,-376.9 293.77,-376.9 293.77,-382.9 287.77,-388.9 281.77,-388.9"/>
<text xml:space="preserve" text-anchor="middle" x="179" y="-366.4" font-family="Helvetica Neue" font-size="13.00">Amazon S3 Reports Bucket</text>
<text xml:space="preserve" text-anchor="middle" x="179" y="-350.8" font-family="Helvetica Neue" font-size="13.00">Company PDFs</text>
<text xml:space="preserve" text-anchor="middle" x="179" y="-335.2" font-family="Helvetica Neue" font-size="13.00">Existing and updated pageindex JSON</text>
</g>
<!-- lifecycle&#45;&gt;s3 -->
<!-- control -->
<g id="node3" class="node">
<title>control</title>
<path fill="#eee8ff" stroke="#7759c2" stroke-width="2.1" d="M786.12,-669.4C786.12,-669.4 601.88,-669.4 601.88,-669.4 595.88,-669.4 589.88,-663.4 589.88,-657.4 589.88,-657.4 589.88,-613 589.88,-613 589.88,-607 595.88,-601 601.88,-601 601.88,-601 786.12,-601 786.12,-601 792.12,-601 798.12,-607 798.12,-613 798.12,-613 798.12,-657.4 798.12,-657.4 798.12,-663.4 792.12,-669.4 786.12,-669.4"/>
<text xml:space="preserve" text-anchor="middle" x="694" y="-646.9" font-family="Helvetica Neue" font-size="13.00">Bedrock AgentCore Control Plane</text>
<text xml:space="preserve" text-anchor="middle" x="694" y="-631.3" font-family="Helvetica Neue" font-size="13.00">Create/update runtime version</text>
<text xml:space="preserve" text-anchor="middle" x="694" y="-615.7" font-family="Helvetica Neue" font-size="13.00">Query endpoint status</text>
</g>
<!-- ecr&#45;&gt;control -->
<!-- runtime -->
<g id="node7" class="node">
<title>runtime</title>
<path fill="#f1eafe" stroke="#8c4fff" stroke-width="2.9" d="M1279.32,-396.7C1279.32,-396.7 1046.68,-396.7 1046.68,-396.7 1040.68,-396.7 1034.68,-390.7 1034.68,-384.7 1034.68,-384.7 1034.68,-324.7 1034.68,-324.7 1034.68,-318.7 1040.68,-312.7 1046.68,-312.7 1046.68,-312.7 1279.32,-312.7 1279.32,-312.7 1285.32,-312.7 1291.32,-318.7 1291.32,-324.7 1291.32,-324.7 1291.32,-384.7 1291.32,-384.7 1291.32,-390.7 1285.32,-396.7 1279.32,-396.7"/>
<text xml:space="preserve" text-anchor="middle" x="1163" y="-374.2" font-family="Helvetica Neue" font-size="13.00">Bedrock AgentCore Runtime</text>
<text xml:space="preserve" text-anchor="middle" x="1163" y="-358.6" font-family="Helvetica Neue" font-size="13.00">PageIndex ARM64 container</text>
<text xml:space="preserve" text-anchor="middle" x="1163" y="-343" font-family="Helvetica Neue" font-size="13.00">Public network mode</text>
<text xml:space="preserve" text-anchor="middle" x="1163" y="-327.4" font-family="Helvetica Neue" font-size="13.00">PAGEINDEX_MODEL • AWS_REGION</text>
</g>
<!-- ecr&#45;&gt;runtime -->
<g id="edge15" class="edge">
<title>ecr&#45;&gt;runtime</title>
<path fill="none" stroke="#1f73b7" stroke-width="2.4" d="M459.08,-600.03C459.08,-594.2 459.08,-590 459.08,-590 459.08,-590 1163,-590 1163,-590 1163,-590 1163,-409.56 1163,-409.56"/>
<polygon fill="#1f73b7" stroke="#1f73b7" stroke-width="2.4" points="1165.73,-409.56 1163,-401.76 1160.27,-409.56 1165.73,-409.56"/>
<text xml:space="preserve" text-anchor="middle" x="266.25" y="-518" font-family="Helvetica Neue" font-size="10.00" fill="#394150">pull image</text>
</g>
<!-- control&#45;&gt;runtime -->
<g id="edge16" class="edge">
<title>control&#45;&gt;runtime</title>
<path fill="none" stroke="#7759c2" stroke-width="2.3" d="M775.86,-600.19C775.86,-532.22 775.86,-389 775.86,-389 775.86,-389 1022,-389 1022,-389"/>
<polygon fill="#7759c2" stroke="#7759c2" stroke-width="2.3" points="1022,-391.73 1029.8,-389 1022,-386.27 1022,-391.73"/>
<text xml:space="preserve" text-anchor="middle" x="472.58" y="-518" font-family="Helvetica Neue" font-size="10.00" fill="#394150">deploy version</text>
</g>
<!-- ec2 -->
<g id="node5" class="node">
<title>ec2</title>
<path fill="#fff1e8" stroke="#ed7100" stroke-width="2.4" d="M650.82,-404.2C650.82,-404.2 435.18,-404.2 435.18,-404.2 429.18,-404.2 423.18,-398.2 423.18,-392.2 423.18,-392.2 423.18,-317.2 423.18,-317.2 423.18,-311.2 429.18,-305.2 435.18,-305.2 435.18,-305.2 650.82,-305.2 650.82,-305.2 656.82,-305.2 662.82,-311.2 662.82,-317.2 662.82,-317.2 662.82,-392.2 662.82,-392.2 662.82,-398.2 656.82,-404.2 650.82,-404.2"/>
<text xml:space="preserve" text-anchor="middle" x="543" y="-381.7" font-family="Helvetica Neue" font-size="13.00">Amazon EC2</text>
<text xml:space="preserve" text-anchor="middle" x="543" y="-366.1" font-family="Helvetica Neue" font-size="13.00">Deployment + indexer host</text>
<text xml:space="preserve" text-anchor="middle" x="543" y="-335.5" font-family="Helvetica Neue" font-size="13.00">deploy.sh • Terraform • Docker buildx</text>
<text xml:space="preserve" text-anchor="middle" x="543" y="-319.9" font-family="Helvetica Neue" font-size="13.00">build_pdf_index.py</text>
</g>
<!-- s3&#45;&gt;ec2 -->
<g id="edge3" class="edge">
<title>s3&#45;&gt;ec2</title>
<path fill="none" stroke="#3f8624" stroke-width="2.5" d="M306.51,-355C306.51,-355 410.55,-355 410.55,-355"/>
<polygon fill="#3f8624" stroke="#3f8624" stroke-width="2.5" points="306.51,-352.27 298.71,-355 306.51,-357.73 306.51,-352.27"/>
<polygon fill="#3f8624" stroke="#3f8624" stroke-width="2.5" points="410.55,-357.73 418.35,-355 410.55,-352.27 410.55,-357.73"/>
</g>
<!-- warning -->
<g id="node10" class="node">
<title>warning</title>
<polygon fill="#fff4ce" stroke="#c98a00" stroke-width="1.9" points="255.63,-201.2 96.37,-201.2 96.37,-132.8 261.63,-132.8 261.63,-195.2 255.63,-201.2"/>
<polyline fill="none" stroke="#c98a00" stroke-width="1.9" points="255.63,-201.2 255.63,-195.2"/>
<polyline fill="none" stroke="#c98a00" stroke-width="1.9" points="261.63,-195.2 255.63,-195.2"/>
<text xml:space="preserve" text-anchor="middle" x="179" y="-178.7" font-family="Helvetica Neue" font-size="13.00" fill="#6b4a00">Current gap</text>
<text xml:space="preserve" text-anchor="middle" x="179" y="-163.1" font-family="Helvetica Neue" font-size="13.00" fill="#6b4a00">No EC2 service trust or</text>
<text xml:space="preserve" text-anchor="middle" x="179" y="-147.5" font-family="Helvetica Neue" font-size="13.00" fill="#6b4a00">aws_iam_instance_profile</text>
</g>
<!-- s3&#45;&gt;warning -->
<!-- ec2&#45;&gt;ecr -->
<g id="edge13" class="edge">
<title>ec2&#45;&gt;ecr</title>
<path fill="none" stroke="#1f73b7" stroke-width="2.4" d="M494.97,-416.6C494.97,-416.6 494.97,-588.77 494.97,-588.77"/>
<polygon fill="#1f73b7" stroke="#1f73b7" stroke-width="2.4" points="497.7,-416.6 494.97,-408.8 492.24,-416.6 497.7,-416.6"/>
<polygon fill="#1f73b7" stroke="#1f73b7" stroke-width="2.4" points="492.24,-588.77 494.97,-596.57 497.7,-588.77 492.24,-588.77"/>
<text xml:space="preserve" text-anchor="middle" x="562.91" y="-524" font-family="Helvetica Neue" font-size="10.00" fill="#394150">auth token</text>
<text xml:space="preserve" text-anchor="middle" x="562.91" y="-512" font-family="Helvetica Neue" font-size="10.00" fill="#394150">image push</text>
</g>
<!-- ec2&#45;&gt;control -->
<g id="edge14" class="edge">
<title>ec2&#45;&gt;control</title>
<path fill="none" stroke="#356ea8" stroke-width="2.3" d="M626.35,-405.17C626.35,-405.17 626.35,-588.92 626.35,-588.92"/>
<polygon fill="#356ea8" stroke="#356ea8" stroke-width="2.3" points="623.62,-588.92 626.35,-596.72 629.08,-588.92 623.62,-588.92"/>
<text xml:space="preserve" text-anchor="middle" x="689.9" y="-518" font-family="Helvetica Neue" font-size="10.00" fill="#394150">Terraform apply</text>
</g>
<!-- endpoint -->
<g id="node6" class="node">
<title>endpoint</title>
<path fill="#f3eeff" stroke="#8c4fff" stroke-width="2.2" d="M926.39,-381.1C926.39,-381.1 765.61,-381.1 765.61,-381.1 759.61,-381.1 753.61,-375.1 753.61,-369.1 753.61,-369.1 753.61,-340.3 753.61,-340.3 753.61,-334.3 759.61,-328.3 765.61,-328.3 765.61,-328.3 926.39,-328.3 926.39,-328.3 932.39,-328.3 938.39,-334.3 938.39,-340.3 938.39,-340.3 938.39,-369.1 938.39,-369.1 938.39,-375.1 932.39,-381.1 926.39,-381.1"/>
<text xml:space="preserve" text-anchor="middle" x="846" y="-358.6" font-family="Helvetica Neue" font-size="13.00">AgentCore Runtime Endpoint</text>
<text xml:space="preserve" text-anchor="middle" x="846" y="-343" font-family="Helvetica Neue" font-size="13.00">InvokeAgentRuntime API</text>
</g>
<!-- ec2&#45;&gt;endpoint -->
<g id="edge4" class="edge">
<title>ec2&#45;&gt;endpoint</title>
<path fill="none" stroke="#5636b3" stroke-width="2.9" d="M675.81,-355C675.81,-355 740.68,-355 740.68,-355"/>
<polygon fill="#5636b3" stroke="#5636b3" stroke-width="2.9" points="675.81,-352.27 668.01,-355 675.81,-357.73 675.81,-352.27"/>
<polygon fill="#5636b3" stroke="#5636b3" stroke-width="2.9" points="740.68,-357.73 748.48,-355 740.68,-352.27 740.68,-357.73"/>
</g>
<!-- sts -->
<g id="node11" class="node">
<title>sts</title>
<path fill="#fff3f5" stroke="#dd344c" stroke-width="1.8" d="M432.86,-201.2C432.86,-201.2 303.14,-201.2 303.14,-201.2 297.14,-201.2 291.14,-195.2 291.14,-189.2 291.14,-189.2 291.14,-144.8 291.14,-144.8 291.14,-138.8 297.14,-132.8 303.14,-132.8 303.14,-132.8 432.86,-132.8 432.86,-132.8 438.86,-132.8 444.86,-138.8 444.86,-144.8 444.86,-144.8 444.86,-189.2 444.86,-189.2 444.86,-195.2 438.86,-201.2 432.86,-201.2"/>
<text xml:space="preserve" text-anchor="middle" x="368" y="-178.7" font-family="Helvetica Neue" font-size="13.00">AWS STS</text>
<text xml:space="preserve" text-anchor="middle" x="368" y="-163.1" font-family="Helvetica Neue" font-size="13.00">GetCallerIdentity</text>
<text xml:space="preserve" text-anchor="middle" x="368" y="-147.5" font-family="Helvetica Neue" font-size="13.00">Role session credentials</text>
</g>
<!-- ec2&#45;&gt;sts -->
<g id="edge17" class="edge">
<title>ec2&#45;&gt;sts</title>
<path fill="none" stroke="#dd344c" stroke-width="1.9" stroke-dasharray="5,2" d="M434.02,-293.72C434.02,-293.72 434.02,-212.66 434.02,-212.66"/>
<polygon fill="#dd344c" stroke="#dd344c" stroke-width="1.9" points="431.29,-293.72 434.02,-301.52 436.75,-293.72 431.29,-293.72"/>
<polygon fill="#dd344c" stroke="#dd344c" stroke-width="1.9" points="436.75,-212.66 434.02,-204.86 431.29,-212.66 436.75,-212.66"/>
<text xml:space="preserve" text-anchor="middle" x="324.61" y="-250.2" font-family="Helvetica Neue" font-size="10.00" fill="#394150">identity / session</text>
</g>
<!-- endpoint&#45;&gt;runtime -->
<g id="edge5" class="edge">
<title>endpoint&#45;&gt;runtime</title>
<path fill="none" stroke="#8c4fff" stroke-width="2.9" d="M951.59,-355C951.59,-355 1021.09,-355 1021.09,-355"/>
<polygon fill="#8c4fff" stroke="#8c4fff" stroke-width="2.9" points="951.59,-352.27 943.79,-355 951.59,-357.73 951.59,-352.27"/>
<polygon fill="#8c4fff" stroke="#8c4fff" stroke-width="2.9" points="1021.09,-357.73 1028.89,-355 1021.09,-352.27 1021.09,-357.73"/>
</g>
<!-- runtime&#45;&gt;s3 -->
<g id="edge8" class="edge">
<title>runtime:n&#45;&gt;s3:n</title>
<path fill="none" stroke="#3f8624" stroke-width="2.5" d="M1044.95,-385.12C1044.95,-385.12 1044.95,-271 1044.95,-271 1044.95,-271 276.39,-271 276.39,-271 276.39,-271 276.39,-377.32 276.39,-377.32"/>
<polygon fill="#3f8624" stroke="#3f8624" stroke-width="2.5" points="1042.22,-385.12 1044.95,-392.92 1047.68,-385.12 1042.22,-385.12"/>
<polygon fill="#3f8624" stroke="#3f8624" stroke-width="2.5" points="273.66,-377.32 276.39,-385.12 279.12,-377.32 273.66,-377.32"/>
<text xml:space="preserve" text-anchor="middle" x="368" y="-524" font-family="Helvetica Neue" font-size="10.00" fill="#394150">GetObject</text>
<text xml:space="preserve" text-anchor="middle" x="368" y="-512" font-family="Helvetica Neue" font-size="10.00" fill="#394150">PDF byte stream</text>
</g>
<!-- bedrock -->
<g id="node8" class="node">
<title>bedrock</title>
<path fill="#f1eafe" stroke="#8c4fff" stroke-width="2.3" d="M1600.32,-388.9C1600.32,-388.9 1401.68,-388.9 1401.68,-388.9 1395.68,-388.9 1389.68,-382.9 1389.68,-376.9 1389.68,-376.9 1389.68,-332.5 1389.68,-332.5 1389.68,-326.5 1395.68,-320.5 1401.68,-320.5 1401.68,-320.5 1600.32,-320.5 1600.32,-320.5 1606.32,-320.5 1612.32,-326.5 1612.32,-332.5 1612.32,-332.5 1612.32,-376.9 1612.32,-376.9 1612.32,-382.9 1606.32,-388.9 1600.32,-388.9"/>
<text xml:space="preserve" text-anchor="middle" x="1501" y="-366.4" font-family="Helvetica Neue" font-size="13.00">Amazon Bedrock</text>
<text xml:space="preserve" text-anchor="middle" x="1501" y="-350.8" font-family="Helvetica Neue" font-size="13.00">Claude cross&#45;region inference profile</text>
<text xml:space="preserve" text-anchor="middle" x="1501" y="-335.2" font-family="Helvetica Neue" font-size="13.00">LiteLLM integration</text>
</g>
<!-- runtime&#45;&gt;bedrock -->
<g id="edge6" class="edge">
<title>runtime&#45;&gt;bedrock</title>
<path fill="none" stroke="#8c4fff" stroke-width="2.9" d="M1304.9,-355C1304.9,-355 1376.53,-355 1376.53,-355"/>
<polygon fill="#8c4fff" stroke="#8c4fff" stroke-width="2.9" points="1304.9,-352.27 1297.1,-355 1304.9,-357.73 1304.9,-352.27"/>
<polygon fill="#8c4fff" stroke="#8c4fff" stroke-width="2.9" points="1376.53,-357.73 1384.33,-355 1376.53,-352.27 1376.53,-357.73"/>
</g>
<!-- logs -->
<g id="node9" class="node">
<title>logs</title>
<path fill="#eef4e7" stroke="#759c3e" stroke-width="2.1" d="M1811.76,-388.9C1811.76,-388.9 1654.24,-388.9 1654.24,-388.9 1648.24,-388.9 1642.24,-382.9 1642.24,-376.9 1642.24,-376.9 1642.24,-332.5 1642.24,-332.5 1642.24,-326.5 1648.24,-320.5 1654.24,-320.5 1654.24,-320.5 1811.76,-320.5 1811.76,-320.5 1817.76,-320.5 1823.76,-326.5 1823.76,-332.5 1823.76,-332.5 1823.76,-376.9 1823.76,-376.9 1823.76,-382.9 1817.76,-388.9 1811.76,-388.9"/>
<text xml:space="preserve" text-anchor="middle" x="1733" y="-366.4" font-family="Helvetica Neue" font-size="13.00">Amazon CloudWatch Logs</text>
<text xml:space="preserve" text-anchor="middle" x="1733" y="-350.8" font-family="Helvetica Neue" font-size="13.00">/aws/bedrock&#45;agentcore/*</text>
<text xml:space="preserve" text-anchor="middle" x="1733" y="-335.2" font-family="Helvetica Neue" font-size="13.00">Runtime and application logs</text>
</g>
<!-- runtime&#45;&gt;logs -->
<g id="edge7" class="edge">
<title>runtime&#45;&gt;logs</title>
<path fill="none" stroke="#759c3e" stroke-width="2.3" d="M1292.7,-393C1460.9,-393 1733,-393 1733,-393 1733,-393 1733,-392.65 1733,-392.65"/>
<polygon fill="#759c3e" stroke="#759c3e" stroke-width="2.3" points="1735.73,-400.75 1733,-392.95 1730.27,-400.75 1735.73,-400.75"/>
<text xml:space="preserve" text-anchor="middle" x="1467" y="-518" font-family="Helvetica Neue" font-size="10.00" fill="#394150">log events</text>
</g>
<!-- warning&#45;&gt;ec2 -->
<g id="edge20" class="edge">
<title>warning&#45;&gt;ec2</title>
<path fill="none" stroke="#c98a00" stroke-width="1.9" stroke-dasharray="1,5" d="M206.54,-201.97C206.54,-245.16 206.54,-313 206.54,-313 206.54,-313 325.55,-313 422.01,-313"/>
</g>
<!-- trust -->
<g id="node12" class="node">
<title>trust</title>
<path fill="#fff3f5" stroke="#dd344c" stroke-width="1.8" d="M667.17,-201.2C667.17,-201.2 486.83,-201.2 486.83,-201.2 480.83,-201.2 474.83,-195.2 474.83,-189.2 474.83,-189.2 474.83,-144.8 474.83,-144.8 474.83,-138.8 480.83,-132.8 486.83,-132.8 486.83,-132.8 667.17,-132.8 667.17,-132.8 673.17,-132.8 679.17,-138.8 679.17,-144.8 679.17,-144.8 679.17,-189.2 679.17,-189.2 679.17,-195.2 673.17,-201.2 667.17,-201.2"/>
<text xml:space="preserve" text-anchor="middle" x="577" y="-178.7" font-family="Helvetica Neue" font-size="13.00">IAM Trust Policy</text>
<text xml:space="preserve" text-anchor="middle" x="577" y="-163.1" font-family="Helvetica Neue" font-size="13.00">AgentCore service + account root</text>
<text xml:space="preserve" text-anchor="middle" x="577" y="-147.5" font-family="Helvetica Neue" font-size="13.00">SourceAccount condition</text>
</g>
<!-- role -->
<g id="node13" class="node">
<title>role</title>
<path fill="#fdecef" stroke="#dd344c" stroke-width="2.4" d="M1232.78,-193.4C1232.78,-193.4 1067.22,-193.4 1067.22,-193.4 1061.22,-193.4 1055.22,-187.4 1055.22,-181.4 1055.22,-181.4 1055.22,-152.6 1055.22,-152.6 1055.22,-146.6 1061.22,-140.6 1067.22,-140.6 1067.22,-140.6 1232.78,-140.6 1232.78,-140.6 1238.78,-140.6 1244.78,-146.6 1244.78,-152.6 1244.78,-152.6 1244.78,-181.4 1244.78,-181.4 1244.78,-187.4 1238.78,-193.4 1232.78,-193.4"/>
<text xml:space="preserve" text-anchor="middle" x="1150" y="-170.9" font-family="Helvetica Neue" font-size="13.00">Shared PageIndex IAM Role</text>
<text xml:space="preserve" text-anchor="middle" x="1150" y="-155.3" font-family="Helvetica Neue" font-size="13.00">Execution + caller permissions</text>
</g>
<!-- trust&#45;&gt;role -->
<g id="edge9" class="edge">
<title>trust&#45;&gt;role</title>
<path fill="none" stroke="#dd344c" stroke-width="1.9" stroke-dasharray="5,2" d="M670.99,-201.9C670.99,-219.02 670.99,-236 670.99,-236 670.99,-236 1102.61,-236 1102.61,-236 1102.61,-236 1102.61,-204.95 1102.61,-204.95"/>
<polygon fill="#dd344c" stroke="#dd344c" stroke-width="1.9" points="1105.34,-204.95 1102.61,-197.15 1099.88,-204.95 1105.34,-204.95"/>
<text xml:space="preserve" text-anchor="middle" x="838" y="-250.2" font-family="Helvetica Neue" font-size="10.00" fill="#394150">assume&#45;role trust</text>
</g>
<!-- role&#45;&gt;ec2 -->
<g id="edge19" class="edge">
<title>role&#45;&gt;ec2</title>
<path fill="none" stroke="#c98a00" stroke-width="2" stroke-dasharray="5,2" d="M1150,-194.38C1150,-235.64 1150,-309 1150,-309 1150,-309 674.84,-309 674.84,-309"/>
<polygon fill="#c98a00" stroke="#c98a00" stroke-width="2" points="674.84,-306.27 667.04,-309 674.84,-311.73 674.84,-306.27"/>
<text xml:space="preserve" text-anchor="middle" x="1038.47" y="-250.2" font-family="Helvetica Neue" font-size="10.00" fill="#394150">intended caller credentials</text>
</g>
<!-- role&#45;&gt;runtime -->
<g id="edge18" class="edge">
<title>role&#45;&gt;runtime</title>
<path fill="none" stroke="#dd344c" stroke-width="2.2" stroke-dasharray="5,2" d="M1197.39,-194.29C1197.39,-194.29 1197.39,-300.25 1197.39,-300.25"/>
<polygon fill="#dd344c" stroke="#dd344c" stroke-width="2.2" points="1194.66,-300.25 1197.39,-308.05 1200.12,-300.25 1194.66,-300.25"/>
<text xml:space="preserve" text-anchor="middle" x="1180.34" y="-250.2" font-family="Helvetica Neue" font-size="10.00" fill="#394150">execution credentials</text>
</g>
<!-- policy -->
<g id="node14" class="node">
<title>policy</title>
<path fill="#fff8f9" stroke="#dd344c" stroke-width="1.8" d="M941.18,-201.2C941.18,-201.2 720.82,-201.2 720.82,-201.2 714.82,-201.2 708.82,-195.2 708.82,-189.2 708.82,-189.2 708.82,-144.8 708.82,-144.8 708.82,-138.8 714.82,-132.8 720.82,-132.8 720.82,-132.8 941.18,-132.8 941.18,-132.8 947.18,-132.8 953.18,-138.8 953.18,-144.8 953.18,-144.8 953.18,-189.2 953.18,-189.2 953.18,-195.2 947.18,-201.2 941.18,-201.2"/>
<text xml:space="preserve" text-anchor="middle" x="831" y="-178.7" font-family="Helvetica Neue" font-size="13.00">Inline IAM Policy</text>
<text xml:space="preserve" text-anchor="middle" x="831" y="-163.1" font-family="Helvetica Neue" font-size="13.00">AgentCore invoke • S3 List/Get/Put</text>
<text xml:space="preserve" text-anchor="middle" x="831" y="-147.5" font-family="Helvetica Neue" font-size="13.00">Bedrock invoke • ECR pull • log writes</text>
</g>
<!-- policy&#45;&gt;role -->
<g id="edge10" class="edge">
<title>policy&#45;&gt;role</title>
<path fill="none" stroke="#dd344c" stroke-width="1.9" stroke-dasharray="5,2" d="M953.88,-167C953.88,-167 1043.75,-167 1043.75,-167"/>
<polygon fill="#dd344c" stroke="#dd344c" stroke-width="1.9" points="1043.75,-169.73 1051.55,-167 1043.75,-164.27 1043.75,-169.73"/>
</g>
<!-- legend -->
<g id="node15" class="node">
<title>legend</title>
<path fill="#f7f8fa" stroke="none" stroke-width="1.8" d="M2293.93,-691.4C2293.93,-691.4 1920.07,-691.4 1920.07,-691.4 1914.07,-691.4 1908.07,-685.4 1908.07,-679.4 1908.07,-679.4 1908.07,-591 1908.07,-591 1908.07,-585 1914.07,-579 1920.07,-579 1920.07,-579 2293.93,-579 2293.93,-579 2299.93,-579 2305.93,-585 2305.93,-591 2305.93,-591 2305.93,-679.4 2305.93,-679.4 2305.93,-685.4 2299.93,-691.4 2293.93,-691.4"/>
<polygon fill="#f7f8fa" stroke="none" points="1909.07,-662.8 1909.07,-690.4 2018.95,-690.4 2018.95,-662.8 1909.07,-662.8"/>
<text xml:space="preserve" text-anchor="start" x="1915.07" y="-673.7" font-family="Helvetica Neue" font-weight="bold" font-size="13.00">FLOW LEGEND</text>
<polygon fill="#f7f8fa" stroke="none" points="2018.95,-662.8 2018.95,-690.4 2304.93,-690.4 2304.93,-662.8 2018.95,-662.8"/>
<text xml:space="preserve" text-anchor="start" x="2138.83" y="-671.4" font-family="Helvetica Neue" font-size="13.00">Meaning</text>
<text xml:space="preserve" text-anchor="start" x="1959.13" y="-643.8" font-family="Helvetica Neue" font-size="13.00" fill="#5636b3">↔</text>
<text xml:space="preserve" text-anchor="start" x="2024.95" y="-643.8" font-family="Helvetica Neue" font-size="13.00">Bidirectional request and response</text>
<text xml:space="preserve" text-anchor="start" x="1959.13" y="-616.2" font-family="Helvetica Neue" font-size="13.00" fill="#356ea8">→</text>
<text xml:space="preserve" text-anchor="start" x="2024.95" y="-616.2" font-family="Helvetica Neue" font-size="13.00">One&#45;way deployment, image, lifecycle, or log action</text>
<text xml:space="preserve" text-anchor="start" x="1951.55" y="-588.6" font-family="Helvetica Neue" font-size="13.00" fill="#dd344c">&#45; &#45; →</text>
<text xml:space="preserve" text-anchor="start" x="2024.95" y="-588.6" font-family="Helvetica Neue" font-size="13.00">IAM trust or credential relationship</text>
<polygon fill="none" stroke="#cbd1d8" points="1908.07,-579 1908.07,-691.4 2305.93,-691.4 2305.93,-579 1908.07,-579"/>
</g>
</g>
</svg>
